<svg id="visual" viewBox="0 0 1348 700" width="1348" height="700" xmlns="http://www.w3.org/2000/svg" xmlns:xlink="http://www.w3.org/1999/xlink" version="1.1"><rect x="0" y="0" width="1348" height="700" fill="#ffffff"></rect><defs><linearGradient id="grad1_0" x1="48.1%" y1="0%" x2="100%" y2="100%"><stop offset="11.485714285714284%" stop-color="#ffffff" stop-opacity="1"></stop><stop offset="88.51428571428572%" stop-color="#ffffff" stop-opacity="1"></stop></linearGradient></defs><defs><linearGradient id="grad2_0" x1="0%" y1="0%" x2="51.9%" y2="100%"><stop offset="11.485714285714284%" stop-color="#ffffff" stop-opacity="1"></stop><stop offset="88.51428571428572%" stop-color="#ffffff" stop-opacity="1"></stop></linearGradient></defs><g transform="translate(1348, 0)"><path d="M0 350C-23.4 349 -46.9 348.1 -67.7 340.3C-88.5 332.6 -106.7 318 -128.6 310.4C-150.5 302.9 -176.1 302.3 -193.9 290.2C-211.7 278.1 -221.7 254.5 -236.9 236.9C-252 219.3 -272.3 207.7 -285.2 190.6C-298.1 173.4 -303.6 150.7 -313.2 129.7C-322.8 108.8 -336.5 89.6 -343.3 68.3C-350.1 47 -350 23.5 -350 0L0 0Z" fill="#179cb1"></path></g><g transform="translate(0, 700)"><path d="M0 -350C22.7 -347.1 45.4 -344.1 67.5 -339.4C89.6 -334.6 111.1 -328 132.8 -320.6C154.5 -313.1 176.4 -304.8 194.4 -291C212.5 -277.2 226.8 -257.9 239 -239C251.2 -220.1 261.4 -201.6 276 -184.4C290.7 -167.3 310 -151.6 317.8 -131.6C325.7 -111.7 322.2 -87.4 325.6 -64.8C329.1 -42.1 339.5 -21.1 350 0L0 0Z" fill="#179cb1"></path></g></svg>